<svg xmlns="http://www.w3.org/2000/svg" version="1.1" xmlns:xlink="http://www.w3.org/1999/xlink" xmlns:svgjs="http://svgjs.com/svgjs" width="50" height="50" x="0" y="0" viewBox="0 0 512 512" style="enable-background:new 0 0 512 512" xml:space="preserve" class=""><g><path xmlns="http://www.w3.org/2000/svg" d="m0 0 31.800781 448.101562 194.398438 63.898438 194.398437-63.898438 31.800782-448.101562zm0 0" fill="#ff7816" data-original="#ff7816" class=""></path><path xmlns="http://www.w3.org/2000/svg" d="m452.398438 0-31.800782 448.101562-194.398437 63.898438v-512zm0 0" fill="#ff4b00" data-original="#ff4b00" class=""></path><path xmlns="http://www.w3.org/2000/svg" d="m367.5 136h-222.300781l5.398437 75h211.503906l-12.902343 181.597656-123 41.101563-123-41.101563-4.199219-60.597656h60l1.199219 16.5 66 21.898438 66-21.898438 5.398437-77.5h-203.097656l-13.800781-195h291zm0 0" fill="#ececf1" data-original="#ececf1" class=""></path><g xmlns="http://www.w3.org/2000/svg" fill="#e2e2e7"><path d="m362.101562 211-12.902343 181.597656-123 41.101563v-63.300781l66-21.898438 5.398437-77.5h-71.398437v-60zm0 0" fill="#e2e2e7" data-original="#e2e2e7" class=""></path><path d="m371.699219 76-4.199219 60h-141.300781v-60zm0 0" fill="#e2e2e7" data-original="#e2e2e7" class=""></path></g></g></svg>